<svg xmlns="http://www.w3.org/2000/svg" width="136.017" height="55.102" viewBox="0 0 136.017 55.102">
  <g id="Group_2733" data-name="Group 2733" transform="translate(-231.453 -361.317)">
    <path id="Path_109816" data-name="Path 109816" d="M3324.193,389.419l-14.92-24.148v26.353h-2.486V361.317h2.959l14.447,23.4,14.447-23.4h2.959v30.758h-2.487v-26.8Z" transform="translate(-3071.108 0)"/>
    <path id="Path_109817" data-name="Path 109817" d="M3454.239,408.368a7.662,7.662,0,0,0-2.163-.3,7.47,7.47,0,0,0-7.459,7.46v8.612h-2.487V405.583h2.487v3.73a2.154,2.154,0,0,1,.422-.82,9.589,9.589,0,0,1,7.037-2.909,10.457,10.457,0,0,1,2.636.323Z" transform="translate(-3169.152 -32.067)"/>
    <path id="Path_109818" data-name="Path 109818" d="M3488.98,411.622v-22.38h2.487v22.38a11.958,11.958,0,0,1-3.631,8.777l-1.765-1.74A9.589,9.589,0,0,0,3488.98,411.622Zm2.487-28.6v2.487h-2.487v-2.487Z" transform="translate(-3200.984 -15.726)"/>
    <path id="Path_109819" data-name="Path 109819" d="M3526.746,430.449a12.439,12.439,0,1,1,8.79-3.643A11.976,11.976,0,0,1,3526.746,430.449Zm0-22.379a9.933,9.933,0,1,0,7.038,2.909A9.584,9.584,0,0,0,3526.746,408.07Z" transform="translate(-3221.442 -32.067)"/>
    <path id="Path_109820" data-name="Path 109820" d="M3712.817,405.583h2.486v3.357q.2-.224.423-.448a9.947,9.947,0,0,1,16.983,7.037v14.919h-2.487V415.53a7.46,7.46,0,0,0-14.92,0v14.919h-2.486Z" transform="translate(-3365.24 -32.067)"/>
    <path id="Path_109821" data-name="Path 109821" d="M3295.92,489.725a67.63,67.63,0,0,1,13.483-15.949l-1.511-2.321q-8.743,7.2-16.256,20.13h0a1.351,1.351,0,0,0,.81,1.981h0a88.28,88.28,0,0,0,20.837,2.637h.46c13.257,0,24-3.4,31.378-9.871l-1.914-1.914c-14.023,12.2-37.444,9.117-46.406,7.355A1.353,1.353,0,0,1,3295.92,489.725Z" transform="translate(-3060 -79.785)" fill="#5cbe07"/>
    <path id="Path_109822" data-name="Path 109822" d="M3630.226,398.179a6.785,6.785,0,0,1,5.5-3.989c.26-.028.489-.054.7-.078a20.065,20.065,0,0,1,4.109-.064l.01-1.982a22.65,22.65,0,0,0-4.346.073c-.206.024-.429.049-.683.077a8.755,8.755,0,0,0-7.11,5.159,8.558,8.558,0,0,0,.811,8.547c1.437,2.025,4.517,3.33,7.708,3.33.269,0,.539-.011.808-.03a12.422,12.422,0,0,1,.449,3.308v5.228h-9.019a8.536,8.536,0,0,1-8.526-8.526v-4.063a5.387,5.387,0,0,1,5.419-5.092l.128,0a6.086,6.086,0,0,1,.549-2.57q-.337-.015-.677-.016a7.971,7.971,0,0,0-8,7.676v4.063a11.123,11.123,0,0,0,11.111,11.111h10.3a1.306,1.306,0,0,0,1.3-1.3v-6.508A15.064,15.064,0,0,0,3630.226,398.179Zm.615,6.595a6.565,6.565,0,0,1-1.219-4.073,12.513,12.513,0,0,1,7.393,6.566C3634.145,407.3,3631.772,406.087,3630.841,404.774Z" transform="translate(-3296.595 -22.232)" fill="#5cbe07"/>
  </g>
</svg>
