<svg id="Group_2452" data-name="Group 2452" xmlns="http://www.w3.org/2000/svg" width="84" height="84" viewBox="0 0 84 84">
  <g id="Layer_21" data-name="Layer 21">
    <path id="Path_109392" data-name="Path 109392" d="M21.419,11.71a2.71,2.71,0,0,1,2.71,2.71h2.71a5.419,5.419,0,1,0-10.839,0v8.129a5.419,5.419,0,1,0,10.839,0h-2.71a2.71,2.71,0,0,1-5.419,0V14.419A2.71,2.71,0,0,1,21.419,11.71Z" transform="translate(4.323 1.839)" fill="#5cbe07"/>
    <path id="Path_109393" data-name="Path 109393" d="M34.129,20.742l-2.71,3.612-2.71-3.612V9H26V21.194a1.355,1.355,0,0,0,.271.813l4.065,5.419a1.355,1.355,0,0,0,2.168,0l4.065-5.419a1.355,1.355,0,0,0,.271-.813V9h-2.71Z" transform="translate(7.871 1.839)" fill="#5cbe07"/>
    <path id="Path_109394" data-name="Path 109394" d="M8.355,34.806H54.419a1.355,1.355,0,0,0,1.355-1.355V6.355A1.355,1.355,0,0,0,54.419,5H8.355A1.355,1.355,0,0,0,7,6.355v27.1A1.355,1.355,0,0,0,8.355,34.806ZM9.71,7.71H53.065V32.1H9.71Z" transform="translate(1.129 0.419)" fill="#5cbe07"/>
    <path id="Path_109395" data-name="Path 109395" d="M16.484,29H8.355A1.355,1.355,0,0,0,7,30.355v8.129a1.355,1.355,0,0,0,1.355,1.355h8.129a1.355,1.355,0,0,0,1.355-1.355V30.355A1.355,1.355,0,0,0,16.484,29Zm-1.355,8.129H9.71V31.71h5.419Z" transform="translate(1.129 8.935)" fill="#5cbe07"/>
    <path id="Path_109396" data-name="Path 109396" d="M16.484,39H8.355A1.355,1.355,0,0,0,7,40.355v8.129a1.355,1.355,0,0,0,1.355,1.355h8.129a1.355,1.355,0,0,0,1.355-1.355V40.355A1.355,1.355,0,0,0,16.484,39Zm-1.355,8.129H9.71V41.71h5.419Z" transform="translate(1.129 12.484)" fill="#5cbe07"/>
    <path id="Path_109397" data-name="Path 109397" d="M16.484,49H8.355A1.355,1.355,0,0,0,7,50.355v8.129a1.355,1.355,0,0,0,1.355,1.355h8.129a1.355,1.355,0,0,0,1.355-1.355V50.355A1.355,1.355,0,0,0,16.484,49Zm-1.355,8.129H9.71V51.71h5.419Z" transform="translate(1.129 16.032)" fill="#5cbe07"/>
    <rect id="Rectangle_13" data-name="Rectangle 13" width="26" height="3" transform="translate(20.863 39)" fill="#5cbe07"/>
    <path id="Path_109398" data-name="Path 109398" d="M84.6,79.978l-7.171-7.171.4-.4a1.355,1.355,0,0,0,0-1.916L73.9,66.571a17.542,17.542,0,0,0-7.868-22.923V2.355A1.355,1.355,0,0,0,64.677,1H2.355A1.355,1.355,0,0,0,1,2.355v81.29A1.355,1.355,0,0,0,2.355,85H53.839a1.355,1.355,0,0,0,.959-.4l8.593-8.618a17.761,17.761,0,0,0,1.826-.722l3.922,3.929a1.355,1.355,0,0,0,1.916,0l.4-.4L77.267,84.6a1.355,1.355,0,0,0,.959.4h5.419A1.355,1.355,0,0,0,85,83.645v-2.71a1.355,1.355,0,0,0-.4-.958Zm-11.8-20.72a14.9,14.9,0,1,1-14.9-14.9,14.9,14.9,0,0,1,14.9,14.9ZM3.71,3.71H63.323v38.8a17.54,17.54,0,0,0-16.658,3.2H22.677v2.71H44.049a17.613,17.613,0,0,0-2.9,5.419H22.677v2.71H40.521a17.689,17.689,0,0,0-.23,2.71H22.677v2.71H40.521a17.453,17.453,0,0,0,1.773,5.419H22.677V70.1H44.049a17.748,17.748,0,0,0,2.616,2.71H22.677v2.71H51.129c.442.186.9.348,1.355.5V82.29H3.71ZM55.194,80.368V76.641a17.689,17.689,0,0,0,2.71.23c.271,0,.542-.028.813-.042ZM67.682,73.89a17.717,17.717,0,0,0,4.853-4.853l2.42,2.414L70.1,76.31Zm14.608,8.4h-3.5l-5.419-5.419,2.149-2.149L82.29,81.5Z" transform="translate(-1 -1)" fill="#5cbe07"/>
    <path id="Path_109399" data-name="Path 109399" d="M34,47.194A12.194,12.194,0,1,0,46.194,35,12.194,12.194,0,0,0,34,47.194Zm21.677,0a9.484,9.484,0,1,1-9.484-9.484,9.484,9.484,0,0,1,9.484,9.484Z" transform="translate(10.71 11.065)" fill="#5cbe07"/>
    <path id="Path_109400" data-name="Path 109400" d="M43,41.71a4.065,4.065,0,0,1,4.065,4.065h2.71A6.782,6.782,0,0,0,43,39Z" transform="translate(13.903 12.484)" fill="#5cbe07"/>
    <path id="Path_109401" data-name="Path 109401" d="M40.71,44H38a6.782,6.782,0,0,0,6.774,6.774v-2.71A4.065,4.065,0,0,1,40.71,44Z" transform="translate(12.129 14.258)" fill="#5cbe07"/>
  </g>
</svg>
