<svg id="time-management" xmlns="http://www.w3.org/2000/svg" width="88" height="88" viewBox="0 0 88 88">
  <circle id="Ellipse_3" data-name="Ellipse 3" cx="1.289" cy="1.289" r="1.289" transform="translate(42.711 30.938)" fill="#5cbe07"/>
  <circle id="Ellipse_4" data-name="Ellipse 4" cx="1.289" cy="1.289" r="1.289" transform="matrix(0.914, -0.407, 0.407, 0.914, 48.773, 29.85)" fill="#5cbe07"/>
  <circle id="Ellipse_5" data-name="Ellipse 5" cx="1.289" cy="1.289" r="1.289" transform="matrix(0.914, -0.407, 0.407, 0.914, 35.872, 7.515)" fill="#5cbe07"/>
  <path id="Path_109402" data-name="Path 109402" d="M315.385,142.672a1.289,1.289,0,1,0,.472,1.761A1.289,1.289,0,0,0,315.385,142.672Z" transform="translate(-259.577 -118.007)" fill="#5cbe07"/>
  <path id="Path_109403" data-name="Path 109403" d="M185.481,67.672a1.289,1.289,0,1,0,.472,1.761A1.289,1.289,0,0,0,185.481,67.672Z" transform="translate(-152 -55.898)" fill="#5cbe07"/>
  <circle id="Ellipse_6" data-name="Ellipse 6" cx="1.289" cy="1.289" r="1.289" transform="translate(29.82 18.047)" fill="#5cbe07"/>
  <path id="Path_109404" data-name="Path 109404" d="M315.385,69.9a1.289,1.289,0,1,0-1.761-.472A1.289,1.289,0,0,0,315.385,69.9Z" transform="translate(-259.577 -55.898)" fill="#5cbe07"/>
  <circle id="Ellipse_7" data-name="Ellipse 7" cx="1.289" cy="1.289" r="1.289" transform="matrix(0.914, -0.407, 0.407, 0.914, 31.155, 25.133)" fill="#5cbe07"/>
  <path id="Path_109405" data-name="Path 109405" d="M286.644,42.453a1.289,1.289,0,1,0-.472-1.761A1.289,1.289,0,0,0,286.644,42.453Z" transform="translate(-236.843 -33.164)" fill="#5cbe07"/>
  <path id="Path_109406" data-name="Path 109406" d="M212.933,170.124a1.289,1.289,0,1,0,.472,1.761A1.289,1.289,0,0,0,212.933,170.124Z" transform="translate(-174.734 -140.741)" fill="#5cbe07"/>
  <path id="Path_109407" data-name="Path 109407" d="M182.172,19.336a19.336,19.336,0,1,0-19.336,19.336A19.358,19.358,0,0,0,182.172,19.336ZM162.836,36.094a16.758,16.758,0,1,1,16.758-16.758A16.777,16.777,0,0,1,162.836,36.094Z" transform="translate(-118.836)" fill="#5cbe07"/>
  <path id="Path_109408" data-name="Path 109408" d="M262.68,42.891h-11.6v-11.6a1.289,1.289,0,0,0-2.578,0V44.18a1.289,1.289,0,0,0,1.289,1.289H262.68a1.289,1.289,0,0,0,0-2.578Z" transform="translate(-205.789 -24.844)" fill="#5cbe07"/>
  <path id="Path_109409" data-name="Path 109409" d="M23.2,67.625V54.493a6.456,6.456,0,0,0-5.156-6.316V41.6a6.455,6.455,0,0,0-5.265-6.335A6.446,6.446,0,0,0,6.265,30,6.544,6.544,0,0,0,0,36.554V73.7a11.559,11.559,0,0,0,1.988,6.495l16.141,23.89-1.6,7.193a1.289,1.289,0,0,0,1.258,1.569H41.422a1.289,1.289,0,0,0,1.289-1.289V91.938a11.525,11.525,0,0,0-3.4-8.2ZM15.469,41.6V59.982a1.289,1.289,0,1,0,2.578,0V50.848a3.873,3.873,0,0,1,2.578,3.645V65.138a6.449,6.449,0,0,0-7.734,0V37.957A3.873,3.873,0,0,1,15.469,41.6Zm24.664,68.664H19.4l1.37-6.166a1.29,1.29,0,0,0-.19-1L4.125,78.75A8.989,8.989,0,0,1,2.578,73.7V36.554a3.948,3.948,0,0,1,3.758-3.973,3.867,3.867,0,0,1,3.977,3.866V70.294A6.4,6.4,0,0,0,12.2,74.852l18,18a1.289,1.289,0,1,0,1.823-1.823l-18-18A3.842,3.842,0,0,1,12.891,70.3v-.026a3.867,3.867,0,0,1,6.6-2.717l18,18a8.964,8.964,0,0,1,2.643,6.381Z" transform="translate(0 -24.845)" fill="#5cbe07"/>
  <path id="Path_109410" data-name="Path 109410" d="M299.946,30a6.446,6.446,0,0,0-6.517,5.264,6.455,6.455,0,0,0-5.265,6.335v6.575a6.456,6.456,0,0,0-5.156,6.316V67.624L266.9,83.734a11.527,11.527,0,0,0-3.4,8.2v19.618a1.289,1.289,0,0,0,1.289,1.289h23.633a1.289,1.289,0,0,0,1.258-1.569l-1.6-7.193,16.141-23.89a11.56,11.56,0,0,0,1.988-6.495V36.553A6.544,6.544,0,0,0,299.946,30Zm-6.625,7.954V65.136a6.375,6.375,0,0,0-2.578-1.159V41.6A3.873,3.873,0,0,1,293.32,37.956Zm-5.156,12.891v13.13a6.373,6.373,0,0,0-2.578,1.16V54.492A3.873,3.873,0,0,1,288.164,50.847ZM303.633,73.7a8.99,8.99,0,0,1-1.547,5.052L285.635,103.1a1.289,1.289,0,0,0-.19,1l1.37,6.166H266.078V91.937a8.964,8.964,0,0,1,2.643-6.381l18-18a3.867,3.867,0,0,1,5.469,5.469l-18,18a1.289,1.289,0,0,0,1.823,1.823l18-18a6.425,6.425,0,0,0,1.884-4.458c0-.033,0-.066,0-.1V36.446a3.867,3.867,0,0,1,3.977-3.866,3.948,3.948,0,0,1,3.758,3.973Z" transform="translate(-218.211 -24.844)" fill="#5cbe07"/>
</svg>
