<svg id="cleaning-tools" xmlns="http://www.w3.org/2000/svg" width="88.001" height="88" viewBox="0 0 88.001 88">
  <path id="Path_109374" data-name="Path 109374" d="M42.933,122.7a4.038,4.038,0,0,1,4.033-4.033h15.4A4.038,4.038,0,0,1,66.4,122.7v7.7h2.933v-7.7a6.975,6.975,0,0,0-6.967-6.967H62V107.3a3.3,3.3,0,0,0-3.3-3.3H50.633a3.3,3.3,0,0,0-3.3,3.3v8.433h-.367A6.975,6.975,0,0,0,40,122.7v9.167h2.933Zm7.333-15.4a.367.367,0,0,1,.367-.367H58.7a.367.367,0,0,1,.367.367v8.433h-8.8Z" transform="translate(-35.599 -87.867)" fill="#5cbe07"/>
  <path id="Path_109375" data-name="Path 109375" d="M89.6,216.8v-5.5a3.3,3.3,0,0,0-3.3-3.3h-11a3.3,3.3,0,0,0-3.3,3.3v5.5h2.933v-5.5a.367.367,0,0,1,.367-.367h11a.367.367,0,0,1,.367.367v5.5Z" transform="translate(-61.732 -172.8)" fill="#5cbe07"/>
  <path id="Path_109376" data-name="Path 109376" d="M52.4,416a4.4,4.4,0,1,0,4.4,4.4,4.4,4.4,0,0,0-4.4-4.4Zm0,5.867a1.467,1.467,0,1,1,1.467-1.467A1.467,1.467,0,0,1,52.4,421.867Z" transform="translate(-42.132 -342.667)" fill="#5cbe07"/>
  <path id="Path_109377" data-name="Path 109377" d="M192.125,69.126a1.467,1.467,0,0,0,.878.8l4.4,1.467a1.467,1.467,0,0,0,1.567-.426l7.7-8.8v2.968l-10,14.288a1.467,1.467,0,0,0-.265.841v4.4h2.933V80.729L208.9,67.067h6.945l4.025,13.415v5.651H222.8V80.267a1.467,1.467,0,0,0-.062-.421L218.4,65.385V59.729q0-.014,0-.029v-.007q0-.015,0-.03v-.03c0-.011,0-.023,0-.034v0a1.458,1.458,0,0,0-.2-.609L212.34,48.74A1.467,1.467,0,0,0,211.067,48h-17.6A1.467,1.467,0,0,0,192,49.467v4.4a1.467,1.467,0,0,0,1,1.392l2.148.716-.113.281a1.466,1.466,0,0,0,1.006,1.967l.36.09-4.278,9.625a1.467,1.467,0,0,0,0,1.187ZM209.6,64.134V61.2h5.867v2.933Zm-9.274-13.2h9.889l4.19,7.333h-6.092l-9.928-2.482Zm-5.393,1.876V50.934h2.234l-.925,2.312Zm4.36,6.226,5.1,1.276L197.405,68.3l-1.942-.647Z" transform="translate(-159.732 -42.134)" fill="#5cbe07"/>
  <path id="Path_109378" data-name="Path 109378" d="M103.749,88.52,95.493,76.136a3.293,3.293,0,0,0-2.746-1.47H90.8V29.2H87.862V74.667H84.929V19.3a.367.367,0,0,1,.367-.367h2.2a.367.367,0,0,1,.367.367v6.967H90.8V19.3A3.3,3.3,0,0,0,87.5,16H85.3A3.3,3.3,0,0,0,82,19.3V62.934H65.862A1.467,1.467,0,0,0,64.4,61.467H39.462A1.467,1.467,0,0,0,38,62.934H17.462A1.467,1.467,0,0,0,16,64.4v2.2a5.139,5.139,0,0,0,5.133,5.133h.733V77.6H24.8V71.734H38v17.6A1.467,1.467,0,0,0,39.462,90.8h17.6V87.867H40.929v-4.4h22v4.4H60V90.8h4.4a1.467,1.467,0,0,0,1.467-1.467v-17.6H82v2.933H80.043a3.293,3.293,0,0,0-2.746,1.47L69.042,88.52a1.466,1.466,0,0,0-.246.814v11.733H33.441a10.266,10.266,0,0,0-8.645-17.5V80.534H21.862v3.925A10.266,10.266,0,0,0,26.262,104q.37,0,.733-.026V104h75.533A1.467,1.467,0,0,0,104,102.533v-13.2a1.466,1.466,0,0,0-.246-.814ZM62.929,64.4V74.667h-22V64.4Zm-41.8,4.4a2.2,2.2,0,0,1-2.2-2.2v-.733H38V68.8Zm19.8,11.733V77.6h22v2.933ZM65.862,68.8V65.867H82V68.8ZM18.929,93.733a7.333,7.333,0,1,1,7.333,7.333,7.333,7.333,0,0,1-7.333-7.333Zm60.809-15.97a.366.366,0,0,1,.305-.163h12.7a.366.366,0,0,1,.305.163l7.713,11.57H72.025Zm15.457,23.3V95.2H92.262v5.867h-4.4V95.2H84.929v5.867h-4.4V95.2H77.6v5.867H71.729v-8.8h29.333v8.8Z" transform="translate(-15.995 -16)" fill="#5cbe07"/>
  <path id="Path_109379" data-name="Path 109379" d="M368,376h2.933v2.933H368Z" transform="translate(-303.466 -310)" fill="#5cbe07"/>
  <path id="Path_109380" data-name="Path 109380" d="M416,376h2.933v2.933H416Z" transform="translate(-342.666 -310)" fill="#5cbe07"/>
  <path id="Path_109381" data-name="Path 109381" d="M456,128h2.933v2.933H456Z" transform="translate(-375.333 -107.467)" fill="#5cbe07"/>
  <path id="Path_109382" data-name="Path 109382" d="M456,160h2.933v2.933H456Z" transform="translate(-375.333 -133.6)" fill="#5cbe07"/>
  <path id="Path_109383" data-name="Path 109383" d="M440,144h2.933v2.933H440Z" transform="translate(-362.266 -120.534)" fill="#5cbe07"/>
  <path id="Path_109384" data-name="Path 109384" d="M472,144h2.933v2.933H472Z" transform="translate(-388.399 -120.534)" fill="#5cbe07"/>
  <path id="Path_109385" data-name="Path 109385" d="M56,40h2.933v2.933H56Z" transform="translate(-48.666 -35.6)" fill="#5cbe07"/>
  <path id="Path_109386" data-name="Path 109386" d="M56,72h2.933v2.933H56Z" transform="translate(-48.666 -61.733)" fill="#5cbe07"/>
  <path id="Path_109387" data-name="Path 109387" d="M40,56h2.933v2.933H40Z" transform="translate(-35.599 -48.667)" fill="#5cbe07"/>
  <path id="Path_109388" data-name="Path 109388" d="M72,56h2.933v2.933H72Z" transform="translate(-61.732 -48.667)" fill="#5cbe07"/>
</svg>
