<svg xmlns="http://www.w3.org/2000/svg" width="32" height="32.495" viewBox="0 0 32 32.495">
  <g id="Group_3042" data-name="Group 3042" transform="translate(2712.572 -3199.703)">
    <g id="Group_3027" data-name="Group 3027" transform="translate(-2712.572 3200)">
      <rect id="Rectangle_11026" data-name="Rectangle 11026" width="32" height="32" fill="none"/>
    </g>
    <g id="Group_3028" data-name="Group 3028" transform="translate(-2714.059 3197.803)">
      <path id="Path_118677" data-name="Path 118677" d="M17.307,2.016c.463.116.809.231,1.272.347a5.086,5.086,0,0,1,3.354,5.551,5.274,5.274,0,0,1-4.51,4.626,5.393,5.393,0,0,1-6.013-4.394A5.294,5.294,0,0,1,15.8,2.016c.116,0,.116,0,.231-.116A5.186,5.186,0,0,0,17.307,2.016Z" transform="translate(0.773 0)" fill="#fff"/>
      <path id="Path_118678" data-name="Path 118678" d="M11.028,31.173c-.231-.116-.463-.116-.694-.231A2.761,2.761,0,0,1,8.6,28.4a12.287,12.287,0,0,1,1.272-5.666c0-.116.116-.116.116-.231.231.463.578,1.041.809,1.5a7.163,7.163,0,0,0,3.354,2.775c.231.116.231.116.231.347-.116.463,0,1.041-.116,1.5a2.7,2.7,0,0,1-2.2,2.313h-.116A1.39,1.39,0,0,1,11.028,31.173Z" transform="translate(0.344 3.222)" fill="#fff"/>
      <path id="Path_118679" data-name="Path 118679" d="M20.944,31.157c-.463-.231-.809-.347-1.272-.578A2.584,2.584,0,0,1,18.516,28.5,5.63,5.63,0,0,0,18.4,27.11c0-.231.116-.231.231-.231a7.878,7.878,0,0,0,3.585-3.122,10.745,10.745,0,0,0,.578-1.156,13.558,13.558,0,0,1,1.041,2.775,11.65,11.65,0,0,1,.347,2.891,2.672,2.672,0,0,1-2.313,2.891h-.925Z" transform="translate(1.877 3.237)" fill="#fff"/>
      <path id="Path_118680" data-name="Path 118680" d="M23.168,19.608H11.719V18.22c.116-.578-.116-.809-.578-1.156a18.435,18.435,0,0,1-3.816-2.891,2.864,2.864,0,0,1-.694-3.238A2.966,2.966,0,0,1,9.407,9.2a2.9,2.9,0,0,1,2.082.925,16.112,16.112,0,0,0,2.2,1.735,7.319,7.319,0,0,0,8.326-.463,20.133,20.133,0,0,0,1.619-1.388A2.825,2.825,0,0,1,28.256,11.4a2.7,2.7,0,0,1-.694,2.775A15.72,15.72,0,0,1,23.4,17.295a.534.534,0,0,0-.347.578A8.752,8.752,0,0,1,23.168,19.608Z" transform="translate(0 1.142)" fill="#fff"/>
      <path id="Path_118681" data-name="Path 118681" d="M22.45,19.9a5.514,5.514,0,0,1-2.775,5.2,5.4,5.4,0,0,1-6.245-.231A5.654,5.654,0,0,1,11,19.9Z" transform="translate(0.718 2.815)" fill="#fff"/>
    </g>
  </g>
</svg>
