<svg id="cooking-pot" xmlns="http://www.w3.org/2000/svg" width="38.594" height="30" viewBox="0 0 38.594 30">
  <path id="Path_109636" data-name="Path 109636" d="M115.715,64.392c-.864-1.489-2.5-2.563-5.215-2.563h-3.693V60.4a3.4,3.4,0,0,0-3.392-3.392h-.3A3.4,3.4,0,0,0,99.721,60.4v1.432H96.027c-2.711,0-4.351,1.074-5.215,2.563ZM101.982,60.4a1.132,1.132,0,0,1,1.131-1.131h.3a1.132,1.132,0,0,1,1.131,1.131v1.432h-2.563Z" transform="translate(-83.967 -57.005)" fill="#fff"/>
  <path id="Path_109637" data-name="Path 109637" d="M37.5,186.026A3.636,3.636,0,0,0,34.975,185H3.618a3.544,3.544,0,1,0,0,7.085H6.106v9.874A3.4,3.4,0,0,0,9.5,205.357H29.1a3.4,3.4,0,0,0,3.392-3.392V192.09h2.487A3.637,3.637,0,0,0,37.5,191.07,3.455,3.455,0,0,0,37.5,186.026Zm-31.4,3.8H3.618a1.284,1.284,0,1,1,0-2.563H6.106Zm28.869,0H32.487v-2.563h2.487a1.284,1.284,0,1,1,0,2.563Z" transform="translate(0 -175.357)" fill="#fff"/>
</svg>
