<svg xmlns="http://www.w3.org/2000/svg" width="37" height="33.453" viewBox="0 0 37 33.453">
  <g id="cookies-couple" transform="translate(-0.001 -43.152)">
    <g id="Group_2611" data-name="Group 2611" transform="translate(0.001 43.152)">
      <path id="Path_109643" data-name="Path 109643" d="M9.006,62.573c0-.275.016-.547.041-.814C5.225,60.645,2.4,58.125,2.4,55.195c0-.567.016-1.55.045-1.64.871,2.158,4.135,3.876,7.945,4.488l1.919-3.066a7.553,7.553,0,0,1,1.533-1.763,8.534,8.534,0,0,1,1.973-1.241,10.607,10.607,0,0,1,2.857-.826.9.9,0,0,1-.173-.526.9.9,0,1,1,1.718.395c.127,0,.251,0,.378,0a17.058,17.058,0,0,1,6.161,1.225c-.029-5.01-6.009-9.083-13.375-9.083C6,43.152.005,47.254.005,52.281l0,4c0,4.053,3.9,7.481,9.281,8.656A10.26,10.26,0,0,1,9.006,62.573Zm8.771-16.757a.9.9,0,1,1-.9.9A.912.912,0,0,1,17.778,45.815ZM14.243,48.9a.9.9,0,1,1-.9.9A.912.912,0,0,1,14.243,48.9Zm-3.354-2.084a.9.9,0,1,1-.9.9A.912.912,0,0,1,10.889,46.814ZM8.8,50.982a.9.9,0,1,1-.9.9A.912.912,0,0,1,8.8,50.982Zm-2.536-2.45a.9.9,0,1,1-.9.9A.912.912,0,0,1,6.269,48.532Z" transform="translate(-0.001 -43.152)" fill="#4d4d4d"/>
      <path id="Path_109644" data-name="Path 109644" d="M268.4,267.014a19.364,19.364,0,0,0-2.77-1.443,16.048,16.048,0,0,0-6.161-1.319c-3.144,0-5.832,1.143-7.246,3.391l-1.615,2.577-.51.814a6.553,6.553,0,0,0-.97,3.037,8.771,8.771,0,0,0,.37,3.115,16.188,16.188,0,0,0,7.094,8.652,17.223,17.223,0,0,0,8.956,2.779c3.124,0,5.787-1.134,7.193-3.375.021-.033,2.059-3.284,2.133-3.4C277.549,277.581,274.656,270.935,268.4,267.014Zm-.07,9.659a.9.9,0,1,1-.9-.9A.912.912,0,0,1,268.334,276.673Zm-1.18-6.613a.9.9,0,1,1-.9.9A.912.912,0,0,1,267.155,270.06Zm-3.892,4.349a.906.906,0,1,1-.908-.9.925.925,0,0,1,.908.9Zm1.266-3.716a.9.9,0,1,1-.9-.9A.912.912,0,0,1,264.528,270.693Zm-4.349-3.259a.918.918,0,0,1,.839.567.859.859,0,0,1,.07.341.9.9,0,0,1-1.648.506.873.873,0,0,1-.16-.51A.906.906,0,0,1,260.18,267.433Zm11.126,15.623c-2.1,3.358-8.192,3.333-13.116.242a14.405,14.405,0,0,1-5.413-5.923,8.341,8.341,0,0,1-.793-3,5.059,5.059,0,0,1,.715-3c.21-.333.534-.834.736-1.13a1.462,1.462,0,0,1,.177-.234c-.012.074-.025.148-.033.226a6.658,6.658,0,0,0,1.11,3.946,14.976,14.976,0,0,0,2.039,2.672,18.923,18.923,0,0,0,3.638,2.972c4.221,2.647,9.474,3.559,11.837,1.85C272.2,281.679,271.61,282.575,271.306,283.056Zm.744-7.924a.9.9,0,1,1-.9-.9A.912.912,0,0,1,272.05,275.132Z" transform="translate(-238.873 -255.164)" fill="#4d4d4d"/>
    </g>
  </g>
</svg>
