<svg xmlns="http://www.w3.org/2000/svg" width="36.767" height="36.781" viewBox="0 0 36.767 36.781">
  <g id="customer" transform="translate(0 0.444)">
    <path id="Path_110222" data-name="Path 110222" d="M15,66.157a1.691,1.691,0,0,1-.856-.941c-2.011-4.022-3.979-8-5.989-11.979-.471-.9-.3-1.369.6-1.84.642-.3,1.241-.6,1.882-.941a3.22,3.22,0,0,1,2.866-.128.436.436,0,0,0,.385-.086,34.488,34.488,0,0,1,2.738-2.225,7.337,7.337,0,0,1,8.471.342,3.056,3.056,0,0,0,2.824.984h4.021a3.2,3.2,0,0,1,3.251,2.1l.128.128c.086-.086.128-.214.214-.3.9-.984,1.8-1.968,2.738-2.909a3.1,3.1,0,0,1,4.278-.428,2.892,2.892,0,0,1,1.155,1.8c.043.086.043.214.086.3v.77a4.424,4.424,0,0,1-.941,1.968c-1.54,1.968-3.038,3.979-4.535,6.032a7.433,7.433,0,0,1-6.332,3.166H19.882c0,.043-.043.086-.043.128a3.276,3.276,0,0,1-2.011,2.952c-.77.342-1.5.77-2.225,1.112Zm.128-14.2c.043.086.043.128.086.214,1.241,2.481,2.481,5.006,3.722,7.487.086.214.257.214.428.214h12.92a4.906,4.906,0,0,0,3.893-1.882c.984-1.241,1.925-2.524,2.866-3.808.77-1.027,1.583-2.054,2.31-3.123a1.052,1.052,0,0,0-.6-1.711,1.167,1.167,0,0,0-1.07.428c-1.455,1.583-2.909,3.123-4.364,4.706a3.225,3.225,0,0,1-2.4,1.155H26.769a1.007,1.007,0,0,1-.984-.813,1.036,1.036,0,0,1,1.07-1.283h5.177a1.1,1.1,0,0,0,1.07-.6,1.04,1.04,0,0,0-.984-1.5c-1.455,0-2.909-.086-4.364,0a5.21,5.21,0,0,1-3.979-1.412,4.932,4.932,0,0,0-5.219-.77C17.186,49.857,16.288,51.1,15.133,51.953ZM10.384,52.98c1.8,3.594,3.594,7.145,5.391,10.738.385-.214.727-.385,1.112-.556.9-.471,1.07-.941.642-1.84-.685-1.369-1.369-2.781-2.1-4.15-.727-1.455-1.455-2.866-2.139-4.321a1.086,1.086,0,0,0-1.326-.642C11.411,52.424,10.9,52.723,10.384,52.98Z" transform="translate(-7.404 -30.195)" fill="#9e9e9e" stroke="#9e9e9e" stroke-width="0.75"/>
    <path id="Path_110223" data-name="Path 110223" d="M40.894,15.394a4.217,4.217,0,0,1,.3-6.118,4.173,4.173,0,0,1,5.519-.043,4.277,4.277,0,0,1,.342,6.118A6.928,6.928,0,0,1,50.263,21v.9a1.058,1.058,0,0,1-1.155,1.155H38.8a1.083,1.083,0,0,1-1.2-1.2,8.14,8.14,0,0,1,.385-3.038,6.364,6.364,0,0,1,2.567-3.209A1.5,1.5,0,0,1,40.894,15.394Zm7.273,5.519a4.174,4.174,0,0,0-2.139-3.679,3.941,3.941,0,0,0-4.407.171,4.286,4.286,0,0,0-1.968,3.551C42.52,20.913,45.344,20.913,48.167,20.913Zm-4.193-6.332a2.1,2.1,0,0,0,2.1-2.1,2.2,2.2,0,0,0-2.1-2.182,2.234,2.234,0,0,0-2.139,2.139A2.145,2.145,0,0,0,43.975,14.582Z" transform="translate(-26.1 -8.097)" fill="#9e9e9e" stroke="#9e9e9e" stroke-width="0.75"/>
    <rect id="Rectangle_10966" data-name="Rectangle 10966" width="36" height="36" fill="none"/>
  </g>
</svg>
