<svg xmlns="http://www.w3.org/2000/svg" width="27.893" height="34.003" viewBox="0 0 27.893 34.003">
  <g id="electrician" transform="translate(-46)">
    <g id="Group_2607" data-name="Group 2607" transform="translate(49.579 0)">
      <g id="Group_2606" data-name="Group 2606" transform="translate(0)">
        <path id="Path_109638" data-name="Path 109638" d="M124.661,7.277H124.4a7.629,7.629,0,0,0-4.922-4.848V.895A.974.974,0,0,0,118.441,0h-4.147a.974.974,0,0,0-1.037.895V2.43A7.6,7.6,0,0,0,108.3,7.384a2.845,2.845,0,0,0-2.3,2.641v1.726a.974.974,0,0,0,1.037.895H125.7a.974.974,0,0,0,1.037-.895V9.067A1.95,1.95,0,0,0,124.661,7.277Zm-5.487,1.528-2.073,1.79c-.97.836-2.437-.428-1.467-1.266l1.057-.911L113.83,7.183a.835.835,0,0,1-.27-1.433l2.073-1.79c.97-.836,2.437.428,1.467,1.266l-1.057.911L118.9,7.372A.835.835,0,0,1,119.174,8.805Z" transform="translate(-106 0)" fill="#4d4d4d"/>
      </g>
    </g>
    <g id="Group_2608" data-name="Group 2608" transform="translate(52.788 16.572)">
      <path id="Path_109639" data-name="Path 109639" d="M150.316,242A7.158,7.158,0,0,1,136,242Z" transform="translate(-136 -242)" fill="#4d4d4d"/>
    </g>
    <g id="Group_2610" data-name="Group 2610" transform="translate(46 25.055)">
      <g id="Group_2609" data-name="Group 2609" transform="translate(0)">
        <path id="Path_109640" data-name="Path 109640" d="M46,370.053a.95.95,0,0,0,1,.895h4.981v-4.474a.95.95,0,0,1,1-.895h1v-3.53C49.493,362.5,46,365.915,46,370.053Zm7.969-2.684v3.579H65.923v-3.579ZM55.962,362v3.579h7.969V362Zm9.962.05v3.53h1a.95.95,0,0,1,1,.895v4.474H72.9a.95.95,0,0,0,1-.895C73.893,365.915,70.4,362.5,65.923,362.05Z" transform="translate(-46 -362)" fill="#4d4d4d"/>
      </g>
    </g>
  </g>
</svg>
