<svg xmlns="http://www.w3.org/2000/svg" width="36.001" height="36.001" viewBox="0 0 36.001 36.001">
  <g id="electric-razor" transform="translate(0 0)">
    <path id="Path_109631" data-name="Path 109631" d="M276.939,12.242,274.7,14.479l-1.492-1.492,2.237-2.237a1.055,1.055,0,0,0-1.492-1.492L271.719,11.5,270.227,10l2.237-2.237a1.055,1.055,0,1,0-1.492-1.492l-2.237,2.237-1.492-1.492,2.237-2.237a1.055,1.055,0,0,0-1.492-1.492l-2.237,2.237-1.492-1.491L266.5,1.8A1.055,1.055,0,0,0,265.006.309l-2.983,2.983a3.167,3.167,0,0,0,0,4.475l8.95,8.95a3.168,3.168,0,0,0,4.475,0l2.983-2.983a1.055,1.055,0,1,0-1.492-1.492Z" transform="translate(-242.738)" fill="#4d4d4d"/>
    <path id="Path_109632" data-name="Path 109632" d="M178.986,91.982a5.224,5.224,0,0,1-1.473-3l-2.587,2.587a5.28,5.28,0,0,0,0,7.458l5.966,5.966a5.28,5.28,0,0,0,7.458,0l2.587-2.587a5.223,5.223,0,0,1-3-1.473Z" transform="translate(-161.193 -82.724)" fill="#4d4d4d"/>
    <path id="Path_109633" data-name="Path 109633" d="M97.268,388.342a1.055,1.055,0,1,0-1.492,0A1.055,1.055,0,0,0,97.268,388.342Z" transform="translate(-88.755 -359.362)" fill="#4d4d4d"/>
    <path id="Path_109634" data-name="Path 109634" d="M131.215,346.8l.883-.883a1.055,1.055,0,1,0-1.492-1.492l-.883.883a2.96,2.96,0,0,1,1.492,1.492Z" transform="translate(-120.601 -319.92)" fill="#4d4d4d"/>
    <path id="Path_109635" data-name="Path 109635" d="M.31,234.439a1.054,1.054,0,0,0,1.492,0l2.313-2.313a7.373,7.373,0,0,0,9.62-.67l7.236-7.236a7.3,7.3,0,0,1-2.761-1.714l-5.966-5.966a7.3,7.3,0,0,1-1.714-2.761l-7.236,7.236a7.373,7.373,0,0,0-.67,9.62L.31,232.948a1.054,1.054,0,0,0,0,1.492Zm5.221-9.7,2.983-2.983a3.164,3.164,0,1,1,4.475,4.475l-2.983,2.983a3.164,3.164,0,0,1-4.475-4.475Z" transform="translate(0 -198.747)" fill="#4d4d4d"/>
  </g>
</svg>
