<svg xmlns="http://www.w3.org/2000/svg" width="18.83" height="12.71" viewBox="0 0 18.83 12.71">
  <path id="Path_109630" data-name="Path 109630" d="M149.756,391.833l.027-.021.02-.013.028-.018.022-.012.029-.015.023-.01.03-.013.023-.009.032-.01.023-.007.034-.008.022,0,.039-.006.02,0c.02,0,.039,0,.059,0H167.6c.02,0,.04,0,.059,0l.02,0,.039.006.022,0,.034.007.023.007.032.01.023.009.031.013.023.01.029.015.021.012.028.018.02.013.027.021.014.011-8.655,8.655a.706.706,0,0,1-1,0l-8.655-8.655.014-.011Zm-.275,1.747,4.463,4.463-4.463,4.463ZM167.6,404.393H150.2a.7.7,0,0,1-.446-.161l5.19-5.189L157.4,401.5a2.117,2.117,0,0,0,2.994,0l2.468-2.468,5.2,5.2a.7.7,0,0,1-.453.165Zm.706-1.91-4.452-4.452,4.452-4.451Z" transform="translate(-149.481 -391.683)" fill="#45475e"/>
</svg>
