<svg id="filter" xmlns="http://www.w3.org/2000/svg" width="32.333" height="32.333" viewBox="0 0 32.333 32.333">
  <path id="Path_4" data-name="Path 4" d="M26.549,0H5.784A5.791,5.791,0,0,0,0,5.784V26.549a5.791,5.791,0,0,0,5.784,5.784H26.549a5.791,5.791,0,0,0,5.784-5.784V5.784A5.791,5.791,0,0,0,26.549,0Zm3.89,26.549a3.894,3.894,0,0,1-3.89,3.89H5.784a3.894,3.894,0,0,1-3.89-3.89V5.784a3.894,3.894,0,0,1,3.89-3.89H26.549a3.894,3.894,0,0,1,3.89,3.89Z" transform="translate(0 0)"/>
  <path id="Path_5" data-name="Path 5" d="M87.536,82.363H73.108a2.976,2.976,0,0,0-5.642,0H65.214a.947.947,0,1,0,0,1.895h2.252a2.976,2.976,0,0,0,5.642,0H87.536a.947.947,0,1,0,0-1.895ZM70.287,84.392a1.082,1.082,0,1,1,1.082-1.082A1.083,1.083,0,0,1,70.287,84.392Z" transform="translate(-60.208 -75.261)"/>
  <path id="Path_6" data-name="Path 6" d="M87.536,210.9H85.284a2.976,2.976,0,0,0-5.642,0H65.214a.947.947,0,0,0,0,1.895H79.642a2.976,2.976,0,0,0,5.642,0h2.252a.947.947,0,1,0,0-1.895Zm-5.073,2.029a1.082,1.082,0,1,1,1.082-1.082A1.083,1.083,0,0,1,82.463,212.925Z" transform="translate(-60.208 -195.677)"/>
  <path id="Path_7" data-name="Path 7" d="M87.536,339.429H77.167a2.976,2.976,0,0,0-5.642,0H65.214a.947.947,0,0,0,0,1.895h6.311a2.976,2.976,0,0,0,5.642,0H87.536a.947.947,0,1,0,0-1.895Zm-13.19,2.029a1.082,1.082,0,1,1,1.082-1.082A1.083,1.083,0,0,1,74.346,341.459Z" transform="translate(-60.208 -316.093)"/>
</svg>
