<svg xmlns="http://www.w3.org/2000/svg" width="24" height="24" viewBox="0 0 24 24">
  <g id="Group_2458" data-name="Group 2458" transform="translate(-843 -4036)">
    <g id="Group_2449" data-name="Group 2449" transform="translate(848 4041)">
      <g id="Group_2434" data-name="Group 2434" transform="translate(0 0)">
        <g id="Group_2433" data-name="Group 2433">
          <rect id="Rectangle_37" data-name="Rectangle 37" width="2.888" height="9.331" transform="translate(0.277 4.666)" fill="#fff"/>
          <path id="Path_109500" data-name="Path 109500" d="M214.354,407.89a1.722,1.722,0,1,0-1.708-1.722A1.715,1.715,0,0,0,214.354,407.89Z" transform="translate(-212.646 -404.446)" fill="#fff"/>
        </g>
        <path id="Path_109501" data-name="Path 109501" d="M223.934,416.608c0-1.312.6-2.093,1.76-2.093,1.062,0,1.573.75,1.573,2.093v4.9h2.874V415.6c0-2.5-1.417-3.708-3.395-3.708a3.253,3.253,0,0,0-2.812,1.542v-1.257h-2.771v9.331h2.771Z" transform="translate(-216.151 -407.509)" fill="#fff"/>
      </g>
    </g>
    <rect id="Rectangle_38" data-name="Rectangle 38" width="24" height="24" transform="translate(843 4036)" fill="none"/>
  </g>
</svg>
