<svg xmlns="http://www.w3.org/2000/svg" width="32" height="32" viewBox="0 0 32 32">
  <g id="Group_3044" data-name="Group 3044" transform="translate(2314 -3142)">
    <g id="Group_3036" data-name="Group 3036" transform="translate(-2314 3142)">
      <rect id="Rectangle_11028" data-name="Rectangle 11028" width="32" height="32" fill="none"/>
    </g>
    <g id="Group_3041" data-name="Group 3041" transform="translate(-2316.045 3139.927)">
      <path id="Path_118703" data-name="Path 118703" d="M7.6,33.79H7.027a1.209,1.209,0,0,1-.8-.686,1.234,1.234,0,0,1,.229-1.03A5.423,5.423,0,0,1,7.6,30.93,1.745,1.745,0,0,0,7.713,28.3a1.874,1.874,0,0,0-2.745.114,4.917,4.917,0,0,1-1.144,1.03,1.167,1.167,0,0,1-1.03.229,1.939,1.939,0,0,1-.686-.915A5.508,5.508,0,0,1,8.4,22.694a1.1,1.1,0,0,0,1.144-.343L22.356,9.539a.923.923,0,0,0,.343-1.03A5.559,5.559,0,0,1,28.647,2.1a1.288,1.288,0,0,1,.915.572c.229.343,0,.8-.343,1.144L28.075,4.963a1.74,1.74,0,0,0,0,2.631,1.937,1.937,0,0,0,2.631,0A10.785,10.785,0,0,1,31.85,6.45c.229-.229.8-.458,1.03-.343.343.114.572.572.686.915a5.606,5.606,0,0,1-6.292,6.063,1.086,1.086,0,0,0-1.258.458L13.2,26.355a1.153,1.153,0,0,0-.343,1.03A5.165,5.165,0,0,1,7.6,33.79Z" transform="translate(0 0)" fill="#fff"/>
      <path id="Path_118704" data-name="Path 118704" d="M31.614,25.451a5.623,5.623,0,0,0-5.948-4.919,1.811,1.811,0,0,1-1.83-.686C22.92,18.93,22,18.015,21.2,17.1l-4,4c1.144,1.03,2.173,2.173,3.2,3.2a.758.758,0,0,1,.229.8,5.552,5.552,0,1,0,10.982.343Zm-3.089,2.974-.686.229h-.114a7.29,7.29,0,0,1-.8.229h-.114l-1.6.458-2.4-2.288.8-3.2,3.2-.915,2.4,2.288-.114.686c0,.114-.114.343-.114.458Z" transform="translate(2.181 2.162)" fill="#fff"/>
      <path id="Path_118705" data-name="Path 118705" d="M13.53,9.517a.758.758,0,0,1-.229-.8A5.564,5.564,0,0,0,6.323,2.424a5.33,5.33,0,0,0-4,6.52,5.568,5.568,0,0,0,6.406,4.233,1.226,1.226,0,0,1,.686.229c1.144,1.03,2.173,2.059,3.317,3.089l4-4C15.7,11.576,14.559,10.546,13.53,9.517ZM10.1,9.974l-3.2.915L4.492,8.6l.8-3.2,3.2-.915,2.4,2.288Z" transform="translate(0.018 0.022)" fill="#fff"/>
    </g>
  </g>
</svg>
