<svg id="paid_black_24dp_1_" data-name="paid_black_24dp (1)" xmlns="http://www.w3.org/2000/svg" width="36" height="36" viewBox="0 0 36 36">
  <g id="Group_2757" data-name="Group 2757">
    <rect id="Rectangle_10956" data-name="Rectangle 10956" width="36" height="36" fill="none"/>
  </g>
  <g id="Group_2758" data-name="Group 2758" transform="translate(3 3)">
    <path id="Path_110213" data-name="Path 110213" d="M17,2A15,15,0,1,0,32,17,15.005,15.005,0,0,0,17,2Zm0,27A12,12,0,1,1,29,17,12.016,12.016,0,0,1,17,29Zm1.335-13.35c-2.67-.885-3.96-1.44-3.96-2.85,0-1.53,1.665-2.085,2.715-2.085a2.9,2.9,0,0,1,2.85,2.01l2.37-1a5.138,5.138,0,0,0-3.99-3.345V6.5H15.695V8.39a4.626,4.626,0,0,0-3.93,4.44c0,3.4,3.375,4.365,5.025,4.965,2.37.84,3.42,1.6,3.42,3.045,0,1.695-1.575,2.415-2.97,2.415-2.73,0-3.51-2.8-3.6-3.135l-2.49,1.005a6.055,6.055,0,0,0,4.53,4.44V27.5h2.625V25.64c.78-.135,4.53-.885,4.53-4.83C22.85,18.725,21.935,16.9,18.335,15.65Z" transform="translate(-2 -2)" fill="#9e9e9e"/>
  </g>
</svg>
