<svg id="Group_2575" data-name="Group 2575" xmlns="http://www.w3.org/2000/svg" xmlns:xlink="http://www.w3.org/1999/xlink" width="17.219" height="17.217" viewBox="0 0 17.219 17.217">
  <defs>
    <clipPath id="clip-path">
      <rect id="Rectangle_109" data-name="Rectangle 109" width="17.219" height="17.217" fill="#45475e"/>
    </clipPath>
  </defs>
  <g id="Group_2566" data-name="Group 2566" transform="translate(0 0)">
    <g id="Group_2565" data-name="Group 2565" clip-path="url(#clip-path)">
      <path id="Path_109597" data-name="Path 109597" d="M150.82,146.794a2.02,2.02,0,0,1,2.018-2.023h2.709a2.012,2.012,0,0,1,2,1.785,9.819,9.819,0,0,0,.367,1.767,2.016,2.016,0,0,1-.5,2.02l-1.1,1.1a12.662,12.662,0,0,0,5,5l1.1-1.1a2.016,2.016,0,0,1,2.02-.5,9.84,9.84,0,0,0,1.768.367,2.012,2.012,0,0,1,1.784,2v2.708a2.019,2.019,0,0,1-2.208,2.009,16.556,16.556,0,0,1-14.959-14.959c-.006-.062-.009-.123-.009-.185Zm5.845,2.126" transform="translate(-150.803 -144.754)" fill="#45475e"/>
    </g>
  </g>
</svg>
