<svg xmlns="http://www.w3.org/2000/svg" width="24" height="24" viewBox="0 0 24 24">
  <g id="Group_2459" data-name="Group 2459" transform="translate(-941 -4036)">
    <g id="Group_2429" data-name="Group 2429" transform="translate(947 4040.589)">
      <path id="Path_109497" data-name="Path 109497" d="M98.167,413.162a.328.328,0,0,0,.477-.237c.043-.167.148-.589.194-.764a.46.46,0,0,0-.137-.53,2.75,2.75,0,0,1-.628-1.868,4.509,4.509,0,0,1,4.688-4.56c2.557,0,3.961,1.563,3.961,3.649,0,2.745-1.215,5.061-3.019,5.061a1.474,1.474,0,0,1-1.5-1.833,20.333,20.333,0,0,0,.841-3.379,1.275,1.275,0,0,0-1.284-1.43c-1.018,0-1.836,1.053-1.836,2.464a3.657,3.657,0,0,0,.3,1.507L99,416.43a10.666,10.666,0,0,0-.029,3.618.127.127,0,0,0,.226.055,10.139,10.139,0,0,0,1.719-3.116c.117-.424.67-2.617.67-2.617a2.728,2.728,0,0,0,2.325,1.186c3.061,0,5.137-2.79,5.137-6.525,0-2.824-2.391-5.454-6.027-5.454-4.523,0-6.8,3.243-6.8,5.948C96.217,411.164,96.837,412.62,98.167,413.162Z" transform="translate(-96.217 -403.578)" fill="#fff"/>
    </g>
    <rect id="Rectangle_41" data-name="Rectangle 41" width="24" height="24" transform="translate(941 4036)" fill="none"/>
  </g>
</svg>
