<svg xmlns="http://www.w3.org/2000/svg" width="32" height="32" viewBox="0 0 32 32">
  <g id="Group_3053" data-name="Group 3053" transform="translate(2302 -3325)">
    <g id="Group_3031" data-name="Group 3031" transform="translate(-2302 3325)">
      <rect id="Rectangle_11027" data-name="Rectangle 11027" width="32" height="32" fill="none"/>
    </g>
    <g id="Group_3038" data-name="Group 3038" transform="translate(-2305 3321.885)">
      <path id="Path_118710" data-name="Path 118710" d="M8.909,27.837a12.974,12.974,0,0,1-1.354-.862c-1.231-1.231-2.462-2.462-3.816-3.693a1.725,1.725,0,0,1,0-2.831c2.339-2.339,4.555-4.678,6.894-6.894l9.6-9.6c1.108-1.108,1.97-1.108,3.2,0L27,7.526a1.725,1.725,0,0,1,0,2.831C21.465,15.9,15.925,21.559,10.263,27.1A13.428,13.428,0,0,1,8.909,27.837Z" fill="#fff"/>
      <path id="Path_118711" data-name="Path 118711" d="M19,22.424,22.324,19.1c.123.123.246.123.369.246L30.448,27.1a2.362,2.362,0,0,1,.739,2.462,2.442,2.442,0,0,1-3.693,1.354A1.7,1.7,0,0,0,27,30.548c-2.708-2.585-5.293-5.293-8-8C19.123,22.547,19.123,22.424,19,22.424Z" transform="translate(3.696 3.69)" fill="#fff"/>
      <path id="Path_118712" data-name="Path 118712" d="M23.742,19.446l-.985.985-1.108-1.108c-.615-.492-1.108-.739-1.723-.369a4.421,4.421,0,0,0-1.231.862l-7.509,7.509c-1.846,1.846-3.816,1.723-5.539,0a5.291,5.291,0,0,1-1.108-1.231,3.51,3.51,0,0,1,0-4.308,3.264,3.264,0,0,1,.615.739,5.331,5.331,0,0,0,.123.615,2.355,2.355,0,0,0,.492,2.339l1.108,1.108a2.1,2.1,0,0,0,3.2,0l6.894-6.894a12.258,12.258,0,0,1,1.354-1.231,3.539,3.539,0,0,1,2.216-.862,3.018,3.018,0,0,1,1.97.739A12.324,12.324,0,0,0,23.742,19.446Z" transform="translate(0.185 3.344)" fill="#fff"/>
      <path id="Path_118713" data-name="Path 118713" d="M21.715,3.8c.369.246.615.615.985.862a3.9,3.9,0,0,0-.739.615c-.246-.246-.492-.615-.862-.985A2.685,2.685,0,0,1,21.715,3.8Z" transform="translate(4.181 0.156)" fill="#fff"/>
    </g>
  </g>
</svg>
