<svg xmlns="http://www.w3.org/2000/svg" width="32.029" height="32" viewBox="0 0 32.029 32">
  <g id="shoe_repair" data-name="shoe repair" transform="translate(0.029)">
    <g id="Group_3039" data-name="Group 3039">
      <rect id="Rectangle_11029" data-name="Rectangle 11029" width="32" height="32" fill="none"/>
    </g>
    <g id="Group_3040" data-name="Group 3040" transform="translate(-4.1 -4.025)">
      <path id="Path_118714" data-name="Path 118714" d="M10.141,17.474a3.419,3.419,0,0,0,.941.269c.269,0,.4-.269.672-.269-.134-.269-.134-.538-.4-.672a9.261,9.261,0,0,0-1.075-.4c.134-.672.269-1.344.4-2.151.269.134.538.134.806.269.4.134.806.134.941-.269s-.134-.672-.538-.806c-.269-.134-.538-.134-.806-.269a1.91,1.91,0,0,1,2.285-2.151,11.637,11.637,0,0,0,4.3-.269c2.957-.806,4.7-2.957,6.049-5.511.134-.134.134-.4.269-.538.269-.4.538-.538.941-.269,2.151,1.479,4.167,3.091,5.242,5.511,0,.134.134.269.134.4.4,1.075.4,1.075-.538,1.747-2.151,1.882-4.436,3.764-6.586,5.645a1.441,1.441,0,0,1-.806.269,11.53,11.53,0,0,0-6.721,1.075,7.242,7.242,0,0,0-1.747.941,1.635,1.635,0,0,1-2.151,0,7.5,7.5,0,0,0-1.075-.672C9.872,18.684,9.872,18.684,10.141,17.474Z" transform="translate(2.033 0)" fill="#fff"/>
      <path id="Path_118715" data-name="Path 118715" d="M4.379,29.851a2.49,2.49,0,0,1,.672-3.226c.806-.672,1.479-1.344,2.285-2.016a15.376,15.376,0,0,0,4.839-7.124,5.6,5.6,0,0,0,.269-.806c.4.269.806.4,1.21.672a2.221,2.221,0,0,0,2.554,0,13.667,13.667,0,0,1,5.511-2.016,10.864,10.864,0,0,1,2.151-.134l-.538.538-2.823,3.226A33.859,33.859,0,0,1,4.647,29.717C4.647,29.851,4.513,29.851,4.379,29.851Z" transform="translate(0 3.752)" fill="#fff"/>
      <path id="Path_118716" data-name="Path 118716" d="M4.4,31.092c2.151-.941,4.436-1.882,6.452-2.957A31.872,31.872,0,0,0,21.6,19.129c.941-1.21,2.016-2.285,3.091-3.629a9.774,9.774,0,0,0,1.075,1.21c-2.957,2.554-4.839,6.049-7.93,8.468A35.62,35.62,0,0,1,6.147,31.63C5.072,32.033,5.072,32.033,4.4,31.092Z" transform="translate(0.113 3.856)" fill="#fff"/>
      <path id="Path_118717" data-name="Path 118717" d="M22.182,19.074c-.672-.672-1.21-1.479-1.882-2.151,2.823-2.419,5.511-4.7,8.334-7.124.672.672,1.21,1.479,1.882,2.151C27.693,14.37,25,16.655,22.182,19.074Z" transform="translate(5.585 1.894)" fill="#fff"/>
    </g>
  </g>
</svg>
