<svg id="Star_Icon" data-name="Star Icon" xmlns="http://www.w3.org/2000/svg" width="24" height="24" viewBox="0 0 24 24">
  <rect id="Bounds" width="24" height="24" fill="none"/>
  <g id="Icon" fill="none">
    <path d="M12,3,9.7,10H2.6l5.8,4.2L6.2,21,12,16.8,17.8,21l-2.2-6.8L21.4,10H14.3Z" stroke="none"/>
    <path d="M 12 6.203546524047852 L 10.4240198135376 11 L 5.685951232910156 11 L 9.575160026550293 13.81632041931152 L 8.094264030456543 18.39363861083984 L 12 15.56534004211426 L 15.90573596954346 18.39363861083984 L 14.42483997344971 13.81632041931152 L 18.31404876708984 11 L 13.5759801864624 11 L 12 6.203546524047852 M 12 3 L 14.30000019073486 10 L 21.39999961853027 10 L 15.60000038146973 14.19999980926514 L 17.79999923706055 21 L 12 16.79999923706055 L 6.200000762939453 21 L 8.399999618530273 14.19999980926514 L 2.600000381469727 10 L 9.699999809265137 10 L 12 3 Z" stroke="none" fill="#5cbe07"/>
  </g>
</svg>
