<svg xmlns="http://www.w3.org/2000/svg" width="24" height="24" viewBox="0 0 24 24">
  <g id="Group_2456" data-name="Group 2456" transform="translate(-973 -4036)">
    <g id="Group_2448" data-name="Group 2448" transform="translate(980 4040)">
      <path id="Path_109492" data-name="Path 109492" d="M386.084,365.347a4.677,4.677,0,0,0,.227,1.655,2.83,2.83,0,0,0,.816,1.078,4.1,4.1,0,0,0,1.422.78,6.129,6.129,0,0,0,1.918.274,7.89,7.89,0,0,0,1.777-.191,9.475,9.475,0,0,0,1.836-.67v-2.489a4.318,4.318,0,0,1-2.391.782,2.283,2.283,0,0,1-1.2-.315,1.2,1.2,0,0,1-.543-.624,6.463,6.463,0,0,1-.145-1.767V359.8h3.758v-2.485H389.8v-4.008h-2.242a6.176,6.176,0,0,1-.553,2.015,4.334,4.334,0,0,1-1.063,1.357,4.637,4.637,0,0,1-1.591.867V359.8h1.733Z" transform="translate(-384.351 -353.307)" fill="#fff"/>
    </g>
    <rect id="Rectangle_42" data-name="Rectangle 42" width="24" height="24" transform="translate(973 4036)" fill="none"/>
  </g>
</svg>
