<svg xmlns="http://www.w3.org/2000/svg" width="24" height="24" viewBox="0 0 24 24">
  <g id="Group_2457" data-name="Group 2457" transform="translate(-882 -4036)">
    <g id="Group_2446" data-name="Group 2446" transform="translate(887 4042)">
      <path id="Path_109485" data-name="Path 109485" d="M153.515,367.2a8.677,8.677,0,0,0,13.349-7.706,6.178,6.178,0,0,0,1.523-1.58,6.063,6.063,0,0,1-1.752.48,3.054,3.054,0,0,0,1.341-1.688,6.111,6.111,0,0,1-1.937.741,3.053,3.053,0,0,0-5.2,2.783,8.657,8.657,0,0,1-6.288-3.189,3.055,3.055,0,0,0,.944,4.074,3.041,3.041,0,0,1-1.382-.382,3.054,3.054,0,0,0,2.447,3.03,3.045,3.045,0,0,1-1.377.052,3.052,3.052,0,0,0,2.85,2.119A6.133,6.133,0,0,1,153.515,367.2Z" transform="translate(-153.515 -356.485)" fill="#fff"/>
    </g>
    <rect id="Rectangle_39" data-name="Rectangle 39" width="24" height="24" transform="translate(882 4036)" fill="none"/>
  </g>
</svg>
