<svg xmlns="http://www.w3.org/2000/svg" width="36" height="36" viewBox="0 0 36 36">
  <g id="Group_2953" data-name="Group 2953" transform="translate(-49 -457)">
    <path id="iconmonstr-user-6" d="M14,2.333A5.834,5.834,0,1,1,8.167,8.168,5.84,5.84,0,0,1,14,2.333ZM14,0a8.167,8.167,0,1,0,8.167,8.168A8.167,8.167,0,0,0,14,0Zm7.43,15.579A10.567,10.567,0,0,1,19.5,17.1a14.911,14.911,0,0,1,5.8,8.57H2.679a14.432,14.432,0,0,1,5.8-8.584,10.51,10.51,0,0,1-1.934-1.531C1.578,19.137,0,25.476,0,28H28A17.528,17.528,0,0,0,21.431,15.579Z" transform="translate(53.5 461.5)" fill="#242424" stroke="#242424" stroke-width="0.5"/>
    <rect id="Rectangle_10986" data-name="Rectangle 10986" width="36" height="36" transform="translate(49 457)" fill="none"/>
  </g>
</svg>
