<svg xmlns="http://www.w3.org/2000/svg" width="28.255" height="28.145" viewBox="0 0 28.255 28.145">
  <g id="web-development" transform="translate(0 -1)">
    <path id="Path_109645" data-name="Path 109645" d="M28.255,7.622V3.483A2.486,2.486,0,0,0,25.772,1H2.483A2.486,2.486,0,0,0,0,3.483V7.622ZM19.094,4.311h4.967a.828.828,0,1,1,0,1.656H19.094a.828.828,0,1,1,0-1.656Zm-8.278,0a.828.828,0,1,1-.828.828A.828.828,0,0,1,10.816,4.311Zm-3.311,0a.828.828,0,1,1-.828.828A.828.828,0,0,1,7.505,4.311Zm-3.311,0a.828.828,0,1,1-.828.828A.828.828,0,0,1,4.194,4.311Z" transform="translate(0)" fill="#4d4d4d"/>
    <path id="Path_109646" data-name="Path 109646" d="M0,151v17.383a2.486,2.486,0,0,0,2.483,2.483H25.772a2.486,2.486,0,0,0,2.483-2.483V151Zm9.678,11.77a.828.828,0,1,1-1.034,1.293L4.5,160.752a.828.828,0,0,1,0-1.293l4.139-3.311a.828.828,0,1,1,1.034,1.293l-3.331,2.665Zm7.694-8.133L12.4,166.226a.828.828,0,0,1-1.522-.652l4.967-11.589a.828.828,0,1,1,1.522.652Zm6.378,6.115-4.139,3.311a.828.828,0,1,1-1.034-1.293l3.331-2.665-3.331-2.665a.828.828,0,1,1,1.034-1.293l4.139,3.311a.828.828,0,0,1,0,1.293Z" transform="translate(0 -141.722)" fill="#4d4d4d"/>
  </g>
</svg>
